<?xml version="1.0" encoding="utf-8"?>
<!-- Generator: Adobe Illustrator 16.0.0, SVG Export Plug-In . SVG Version: 6.00 Build 0)  -->
<!DOCTYPE svg PUBLIC "-//W3C//DTD SVG 1.1//EN" "http://www.w3.org/Graphics/SVG/1.1/DTD/svg11.dtd">
<svg version="1.1" id="Layer_1" xmlns="http://www.w3.org/2000/svg" xmlns:xlink="http://www.w3.org/1999/xlink" x="0px" y="0px"
	 width="200px" height="200px" viewBox="0 0 200 200" enable-background="new 0 0 200 200" xml:space="preserve">
<circle fill="#00823B" cx="100" cy="100.155" r="100"/>
<g>
	<path fill="#FFFFFF" d="M140.646,116.155c1.823-2.326,2.698-4.818,2.586-7.386c-0.111-2.827-1.376-5.042-2.418-6.399
		c1.209-3.015,1.674-7.759-2.363-11.442c-2.958-2.698-7.98-3.907-14.939-3.572c-4.893,0.224-8.986,1.135-9.153,1.172h-0.019
		c-0.931,0.168-1.916,0.372-2.921,0.596c-0.075-1.19,0.13-4.149,2.325-10.81c2.604-7.926,2.456-13.991-0.483-18.047
		c-3.089-4.261-8.019-4.595-9.47-4.595c-1.396,0-2.68,0.576-3.591,1.637c-2.065,2.4-1.823,6.828-1.562,8.874
		c-2.457,6.587-9.34,22.735-15.163,27.22c-0.112,0.074-0.205,0.167-0.298,0.26c-1.712,1.805-2.865,3.759-3.646,5.47
		c-1.098-0.595-2.344-0.93-3.684-0.93H64.498c-4.279,0-7.74,3.479-7.74,7.74v30.232c0,4.279,3.479,7.738,7.74,7.738h11.349
		c1.656,0,3.2-0.52,4.465-1.412l4.372,0.52c0.67,0.094,12.577,1.6,24.8,1.359c2.215,0.166,4.299,0.26,6.233,0.26
		c3.33,0,6.232-0.26,8.65-0.781c5.693-1.209,9.582-3.629,11.555-7.182c1.506-2.717,1.506-5.414,1.265-7.125
		c3.702-3.35,4.354-7.051,4.224-9.656C141.336,118.388,141,117.104,140.646,116.155z M64.498,138.892
		c-1.507,0-2.716-1.229-2.716-2.717v-30.252c0-1.506,1.228-2.716,2.716-2.716h11.349c1.507,0,2.716,1.228,2.716,2.716v30.232
		c0,1.508-1.228,2.717-2.716,2.717H64.498V138.892z M135.884,113.979c-0.78,0.818-0.93,2.064-0.334,3.031
		c0,0.02,0.762,1.322,0.855,3.107c0.13,2.438-1.042,4.596-3.498,6.438c-0.874,0.67-1.228,1.824-0.855,2.865
		c0,0.018,0.8,2.475-0.503,4.801c-1.246,2.232-4.018,3.832-8.223,4.725c-3.367,0.727-7.944,0.855-13.563,0.41
		c-0.074,0-0.167,0-0.261,0c-11.962,0.26-24.056-1.303-24.186-1.322h-0.019l-1.879-0.223c0.111-0.521,0.167-1.08,0.167-1.637
		v-30.252c0-0.8-0.13-1.58-0.354-2.307c0.335-1.246,1.265-4.019,3.461-6.382c8.353-6.623,16.521-28.968,16.874-29.936
		c0.149-0.39,0.187-0.818,0.112-1.246c-0.316-2.083-0.205-4.633,0.242-5.396c0.985,0.019,3.646,0.298,5.246,2.512
		c1.897,2.624,1.823,7.312-0.224,13.526c-3.126,9.47-3.386,14.455-0.911,16.651c1.228,1.098,2.864,1.153,4.056,0.725
		c1.135-0.26,2.214-0.483,3.237-0.65c0.074-0.019,0.167-0.037,0.242-0.056c5.711-1.247,15.943-2.01,19.497,1.228
		c3.015,2.753,0.874,6.4,0.633,6.791c-0.688,1.041-0.483,2.4,0.446,3.236c0.019,0.02,1.972,1.861,2.065,4.336
		C138.284,110.61,137.503,112.304,135.884,113.979z"/>
</g>
</svg>
