<?xml version="1.0" encoding="utf-8"?>
<!-- Generator: Adobe Illustrator 16.0.0, SVG Export Plug-In . SVG Version: 6.00 Build 0)  -->
<!DOCTYPE svg PUBLIC "-//W3C//DTD SVG 1.1//EN" "http://www.w3.org/Graphics/SVG/1.1/DTD/svg11.dtd">
<svg version="1.1" id="Layer_1" xmlns="http://www.w3.org/2000/svg" xmlns:xlink="http://www.w3.org/1999/xlink" x="0px" y="0px"
	 width="200px" height="200px" viewBox="0 0 200 200" enable-background="new 0 0 200 200" xml:space="preserve">
<circle fill="#B10E1E" cx="100" cy="100.155" r="100"/>
<g>
	<path fill="#FFFFFF" d="M141.41,80.416c0.13-2.605-0.521-6.307-4.224-9.656c0.241-1.711,0.241-4.408-1.265-7.125
		c-1.973-3.553-5.861-5.973-11.555-7.182c-2.418-0.521-5.32-0.781-8.65-0.781c-1.935,0-4.019,0.094-6.233,0.26
		c-12.223-0.24-24.13,1.266-24.8,1.359l-4.372,0.52c-1.265-0.893-2.809-1.412-4.465-1.412H64.498c-4.26,0-7.74,3.459-7.74,7.738
		v30.232c0,4.261,3.46,7.74,7.74,7.74h11.349c1.339,0,2.586-0.335,3.684-0.93c0.781,1.711,1.935,3.665,3.646,5.47
		c0.093,0.093,0.186,0.186,0.298,0.26c5.823,4.484,12.707,20.633,15.163,27.22c-0.261,2.046-0.502,6.474,1.562,8.874
		c0.911,1.061,2.195,1.637,3.591,1.637c1.451,0,6.381-0.334,9.47-4.595c2.939-4.056,3.088-10.121,0.483-18.047
		c-2.195-6.66-2.4-9.619-2.325-10.81c1.005,0.224,1.99,0.428,2.921,0.596h0.019c0.167,0.037,4.261,0.948,9.153,1.172
		c6.959,0.335,11.981-0.874,14.939-3.572c4.037-3.684,3.572-8.428,2.363-11.442c1.042-1.357,2.307-3.572,2.418-6.399
		c0.112-2.567-0.763-5.06-2.586-7.386C141,83.207,141.336,81.924,141.41,80.416z M64.498,61.439h11.349
		c1.488,0,2.716,1.209,2.716,2.717v30.232c0,1.488-1.209,2.716-2.716,2.716H64.498c-1.488,0-2.716-1.21-2.716-2.716V64.137
		c0-1.488,1.209-2.717,2.716-2.717V61.439z M138.21,91.355c-0.094,2.475-2.047,4.316-2.065,4.336
		c-0.93,0.836-1.135,2.195-0.446,3.236c0.241,0.391,2.382,4.038-0.633,6.791c-3.554,3.237-13.786,2.475-19.497,1.228
		c-0.075-0.019-0.168-0.037-0.242-0.056c-1.023-0.167-2.103-0.391-3.237-0.65c-1.191-0.429-2.828-0.373-4.056,0.725
		c-2.475,2.196-2.215,7.182,0.911,16.651c2.047,6.215,2.121,10.902,0.224,13.526c-1.6,2.214-4.261,2.493-5.246,2.512
		c-0.447-0.763-0.559-3.312-0.242-5.396c0.074-0.428,0.037-0.856-0.112-1.246c-0.353-0.968-8.521-23.312-16.874-29.936
		c-2.196-2.363-3.126-5.136-3.461-6.382c0.224-0.727,0.354-1.507,0.354-2.307V64.137c0-0.557-0.056-1.115-0.167-1.637l1.879-0.223
		h0.019c0.13-0.02,12.223-1.582,24.186-1.322c0.094,0,0.187,0,0.261,0c5.619-0.445,10.196-0.316,13.563,0.41
		c4.205,0.893,6.977,2.492,8.223,4.725c1.303,2.326,0.503,4.783,0.503,4.801c-0.372,1.041-0.019,2.195,0.855,2.865
		c2.456,1.842,3.628,4,3.498,6.438c-0.094,1.785-0.855,3.088-0.855,3.107c-0.596,0.967-0.446,2.213,0.334,3.031
		C137.503,88.008,138.284,89.701,138.21,91.355z"/>
</g>
</svg>
