<?xml version="1.0" encoding="utf-8"?>
<!-- Generator: Adobe Illustrator 16.0.0, SVG Export Plug-In . SVG Version: 6.00 Build 0)  -->
<!DOCTYPE svg PUBLIC "-//W3C//DTD SVG 1.1//EN" "http://www.w3.org/Graphics/SVG/1.1/DTD/svg11.dtd">
<svg version="1.1" id="Capa_1" xmlns="http://www.w3.org/2000/svg" xmlns:xlink="http://www.w3.org/1999/xlink" x="0px" y="0px"
	 width="2267.721px" height="1869.476px" viewBox="0 0 2267.721 1869.476" enable-background="new 0 0 2267.721 1869.476"
	 xml:space="preserve">
<g>
	<g>
		<path fill="#28A197" d="M2265.557,346.299c4.805,17.618,1.602,34.436-9.61,50.452c-11.204,16.017-26.428,25.627-45.647,28.83
			c-273.885,38.44-412.429,166.573-415.632,384.4h247.457c17.614,0,32.834,6.406,45.647,19.22s19.22,28.029,19.22,45.647v927.356
			c0,19.221-6.406,35.249-19.22,48.051c-12.813,12.82-28.033,19.22-45.647,19.22h-776.008c-17.618,0-33.246-6.411-46.86-19.22
			c-13.614-12.81-20.421-28.83-20.421-48.051V999.783c0-317.13,77.681-558.993,233.042-725.555
			C1587.24,107.655,1821.091,16.36,2133.408,0.343c16.017-1.602,30.432,2.402,43.244,12.013
			c12.826,9.609,20.834,22.423,24.025,38.439L2265.557,346.299L2265.557,346.299z M1066.71,346.299
			c4.806,17.618,1.602,34.436-9.61,50.452c-12.812,17.618-28.028,27.229-45.646,28.83c-273.886,38.44-412.43,166.573-415.633,384.4
			h247.457c17.619,0,32.834,6.406,45.647,19.22s19.221,28.029,19.221,45.647v927.356c0,19.221-6.407,35.249-19.221,48.051
			c-12.813,12.82-28.028,19.22-45.647,19.22H67.27c-17.618,0-33.234-6.411-46.849-19.22C6.807,1837.443,0,1821.426,0,1802.206
			V999.783C0,682.653,77.68,440.79,233.043,274.228C388.404,107.655,622.248,16.36,934.572,0.343
			c16.018-1.602,30.432,2.402,43.245,12.013c12.813,9.609,20.822,22.423,24.025,38.439L1066.71,346.299z"/>
	</g>
</g>
</svg>
