<?xml version="1.0" encoding="utf-8"?>
<!-- Generator: Adobe Illustrator 16.0.0, SVG Export Plug-In . SVG Version: 6.00 Build 0)  -->
<!DOCTYPE svg PUBLIC "-//W3C//DTD SVG 1.1//EN" "http://www.w3.org/Graphics/SVG/1.1/DTD/svg11.dtd">
<svg version="1.1" id="Capa_1" xmlns="http://www.w3.org/2000/svg" xmlns:xlink="http://www.w3.org/1999/xlink" x="0px" y="0px"
	 width="2267.721px" height="1869.477px" viewBox="0 0 2267.721 1869.477" enable-background="new 0 0 2267.721 1869.477"
	 xml:space="preserve">
<g>
	<g>
		<path fill="#28A197" d="M2.162,1523.176c-4.805-17.617-1.602-34.436,9.61-50.451c11.204-16.018,26.428-25.627,45.646-28.83
			c273.886-38.44,412.43-166.573,415.633-384.4H225.595c-17.614,0-32.834-6.406-45.647-19.22
			c-12.813-12.814-19.22-28.029-19.22-45.647V67.271c0-19.221,6.406-35.249,19.22-48.051C192.761,6.4,207.981,0,225.595,0h776.008
			c17.617,0,33.246,6.411,46.859,19.221c13.614,12.81,20.422,28.829,20.422,48.051l0,802.421
			c0,317.13-77.682,558.993-233.043,725.555c-155.361,166.573-389.213,257.868-701.529,273.885
			c-16.018,1.603-30.432-2.401-43.244-12.013c-12.826-9.609-20.834-22.423-24.025-38.438L2.162,1523.176L2.162,1523.176z
			 M1201.009,1523.176c-4.806-17.617-1.602-34.436,9.61-50.451c12.812-17.619,28.028-27.229,45.646-28.83
			c273.886-38.44,412.43-166.573,415.633-384.4h-247.457c-17.619,0-32.834-6.406-45.647-19.22
			c-12.812-12.814-19.221-28.029-19.221-45.647V67.271c0-19.221,6.407-35.249,19.221-48.051C1391.608,6.4,1406.823,0,1424.442,0
			h776.008c17.618,0,33.233,6.411,46.849,19.221c13.614,12.812,20.421,28.828,20.421,48.049v802.423
			c0,317.13-77.68,558.993-233.043,725.555c-155.36,166.573-389.204,257.868-701.528,273.885
			c-16.019,1.603-30.433-2.401-43.245-12.013c-12.813-9.609-20.822-22.423-24.025-38.438L1201.009,1523.176z"/>
	</g>
</g>
</svg>
